<svg width="36" height="36" viewBox="0 0 36 36" fill="none" xmlns="http://www.w3.org/2000/svg">
<rect width="36" height="36" rx="18" fill="#FFFDFC"/>
<path d="M23 12H21.5V11.5C21.5 11.3674 21.4473 11.2402 21.3536 11.1464C21.2598 11.0527 21.1326 11 21 11C20.8674 11 20.7402 11.0527 20.6464 11.1464C20.5527 11.2402 20.5 11.3674 20.5 11.5V12H15.5V11.5C15.5 11.3674 15.4473 11.2402 15.3536 11.1464C15.2598 11.0527 15.1326 11 15 11C14.8674 11 14.7402 11.0527 14.6464 11.1464C14.5527 11.2402 14.5 11.3674 14.5 11.5V12H13C12.7348 12 12.4804 12.1054 12.2929 12.2929C12.1054 12.4804 12 12.7348 12 13V23C12 23.2652 12.1054 23.5196 12.2929 23.7071C12.4804 23.8946 12.7348 24 13 24H23C23.2652 24 23.5196 23.8946 23.7071 23.7071C23.8946 23.5196 24 23.2652 24 23V13C24 12.7348 23.8946 12.4804 23.7071 12.2929C23.5196 12.1054 23.2652 12 23 12ZM14.5 13V13.5C14.5 13.6326 14.5527 13.7598 14.6464 13.8536C14.7402 13.9473 14.8674 14 15 14C15.1326 14 15.2598 13.9473 15.3536 13.8536C15.4473 13.7598 15.5 13.6326 15.5 13.5V13H20.5V13.5C20.5 13.6326 20.5527 13.7598 20.6464 13.8536C20.7402 13.9473 20.8674 14 21 14C21.1326 14 21.2598 13.9473 21.3536 13.8536C21.4473 13.7598 21.5 13.6326 21.5 13.5V13H23V15H13V13H14.5ZM23 23H13V16H23V23ZM18.75 18.25C18.75 18.3983 18.706 18.5433 18.6236 18.6667C18.5412 18.79 18.4241 18.8861 18.287 18.9429C18.15 18.9997 17.9992 19.0145 17.8537 18.9856C17.7082 18.9567 17.5746 18.8852 17.4697 18.7803C17.3648 18.6754 17.2933 18.5418 17.2644 18.3963C17.2355 18.2508 17.2503 18.1 17.3071 17.963C17.3639 17.8259 17.46 17.7088 17.5833 17.6264C17.7067 17.544 17.8517 17.5 18 17.5C18.1989 17.5 18.3897 17.579 18.5303 17.7197C18.671 17.8603 18.75 18.0511 18.75 18.25ZM21.5 18.25C21.5 18.3983 21.456 18.5433 21.3736 18.6667C21.2912 18.79 21.1741 18.8861 21.037 18.9429C20.9 18.9997 20.7492 19.0145 20.6037 18.9856C20.4582 18.9567 20.3246 18.8852 20.2197 18.7803C20.1148 18.6754 20.0434 18.5418 20.0144 18.3963C19.9855 18.2508 20.0003 18.1 20.0571 17.963C20.1139 17.8259 20.21 17.7088 20.3333 17.6264C20.4567 17.544 20.6017 17.5 20.75 17.5C20.9489 17.5 21.1397 17.579 21.2803 17.7197C21.421 17.8603 21.5 18.0511 21.5 18.25ZM16 20.75C16 20.8983 15.956 21.0433 15.8736 21.1667C15.7912 21.29 15.6741 21.3861 15.537 21.4429C15.4 21.4997 15.2492 21.5145 15.1037 21.4856C14.9582 21.4566 14.8246 21.3852 14.7197 21.2803C14.6148 21.1754 14.5433 21.0418 14.5144 20.8963C14.4855 20.7508 14.5003 20.6 14.5571 20.463C14.6139 20.3259 14.71 20.2088 14.8333 20.1264C14.9567 20.044 15.1017 20 15.25 20C15.4489 20 15.6397 20.079 15.7803 20.2197C15.921 20.3603 16 20.5511 16 20.75ZM18.75 20.75C18.75 20.8983 18.706 21.0433 18.6236 21.1667C18.5412 21.29 18.4241 21.3861 18.287 21.4429C18.15 21.4997 17.9992 21.5145 17.8537 21.4856C17.7082 21.4566 17.5746 21.3852 17.4697 21.2803C17.3648 21.1754 17.2933 21.0418 17.2644 20.8963C17.2355 20.7508 17.2503 20.6 17.3071 20.463C17.3639 20.3259 17.46 20.2088 17.5833 20.1264C17.7067 20.044 17.8517 20 18 20C18.1989 20 18.3897 20.079 18.5303 20.2197C18.671 20.3603 18.75 20.5511 18.75 20.75ZM21.5 20.75C21.5 20.8983 21.456 21.0433 21.3736 21.1667C21.2912 21.29 21.1741 21.3861 21.037 21.4429C20.9 21.4997 20.7492 21.5145 20.6037 21.4856C20.4582 21.4566 20.3246 21.3852 20.2197 21.2803C20.1148 21.1754 20.0434 21.0418 20.0144 20.8963C19.9855 20.7508 20.0003 20.6 20.0571 20.463C20.1139 20.3259 20.21 20.2088 20.3333 20.1264C20.4567 20.044 20.6017 20 20.75 20C20.9489 20 21.1397 20.079 21.2803 20.2197C21.421 20.3603 21.5 20.5511 21.5 20.75Z" fill="#1A1615"/>
</svg>
