<svg width="36" height="36" viewBox="0 0 36 36" fill="none" xmlns="http://www.w3.org/2000/svg">
<rect width="36" height="36" rx="18" fill="#FFFDFC"/>
<path fill-rule="evenodd" clip-rule="evenodd" d="M18 15.5C16.8954 15.5 16 16.3954 16 17.5C16 18.6046 16.8954 19.5 18 19.5C19.1046 19.5 20 18.6046 20 17.5C20 16.3954 19.1046 15.5 18 15.5ZM15 17.5C15 15.8431 16.3431 14.5 18 14.5C19.6569 14.5 21 15.8431 21 17.5C21 19.1568 19.6569 20.5 18 20.5C16.3431 20.5 15 19.1568 15 17.5Z" fill="#1A1615"/>
<path fill-rule="evenodd" clip-rule="evenodd" d="M18 20.5C17.2613 20.5 16.5371 20.7042 15.9075 21.0906C15.278 21.477 14.7677 22.0302 14.4333 22.6888C14.3083 22.9351 14.0074 23.0333 13.7612 22.9083C13.5149 22.7833 13.4167 22.4824 13.5417 22.2361C13.9597 21.4128 14.5975 20.7213 15.3844 20.2383C16.1713 19.7553 17.0767 19.5 18 19.5C18.9233 19.5 19.8287 19.7553 20.6156 20.2383C21.4025 20.7213 22.0403 21.4128 22.4583 22.2361C22.5833 22.4824 22.4851 22.7833 22.2388 22.9083C21.9926 23.0333 21.6917 22.9351 21.5667 22.6888C21.2323 22.0302 20.722 21.477 20.0925 21.0906C19.4629 20.7042 18.7387 20.5 18 20.5Z" fill="#1A1615"/>
<path fill-rule="evenodd" clip-rule="evenodd" d="M22.1464 17.6464C22.3417 17.4512 22.6583 17.4512 22.8536 17.6464L24 18.7929L25.1464 17.6464C25.3417 17.4512 25.6583 17.4512 25.8536 17.6464C26.0488 17.8417 26.0488 18.1583 25.8536 18.3535L24.3536 19.8535C24.1583 20.0488 23.8417 20.0488 23.6464 19.8535L22.1464 18.3535C21.9512 18.1583 21.9512 17.8417 22.1464 17.6464Z" fill="#1A1615"/>
<path fill-rule="evenodd" clip-rule="evenodd" d="M11.6464 16.1464C11.8417 15.9512 12.1583 15.9512 12.3536 16.1464L13.8536 17.6464C14.0488 17.8417 14.0488 18.1583 13.8536 18.3535C13.6583 18.5488 13.3417 18.5488 13.1464 18.3535L12 17.2071L10.8536 18.3535C10.6583 18.5488 10.3417 18.5488 10.1464 18.3535C9.95118 18.1583 9.95118 17.8417 10.1464 17.6464L11.6464 16.1464Z" fill="#1A1615"/>
<path fill-rule="evenodd" clip-rule="evenodd" d="M15.7355 11.9007C17.0518 11.4114 18.4913 11.3616 19.8383 11.7588C21.1853 12.156 22.3675 12.9787 23.2078 14.1039C24.0482 15.2291 24.5015 16.5962 24.5 18.0005L24 18H24.5V18.0005V19.5C24.5 19.7761 24.2761 20 24 20C23.7239 20 23.5 19.7761 23.5 19.5V17.9994C23.5013 16.8111 23.1177 15.6544 22.4066 14.7023C21.6956 13.7502 20.6953 13.054 19.5555 12.718C18.4157 12.3819 17.1977 12.424 16.0838 12.838C14.97 13.252 14.0202 14.0156 13.3766 15.0145C13.227 15.2467 12.9176 15.3136 12.6854 15.1641C12.4533 15.0145 12.3864 14.7051 12.5359 14.4729C13.2966 13.2924 14.4191 12.3899 15.7355 11.9007Z" fill="#1A1615"/>
<path fill-rule="evenodd" clip-rule="evenodd" d="M12 16C12.2761 16 12.5 16.2238 12.5 16.5L12.5 18.0005C12.4987 19.1888 12.8823 20.3456 13.5934 21.2977C14.3044 22.2498 15.3047 22.9459 16.4445 23.282C17.5843 23.6181 18.8023 23.576 19.9162 23.162C21.03 22.748 21.9798 21.9844 22.6234 20.9854C22.773 20.7533 23.0824 20.6864 23.3146 20.8359C23.5467 20.9855 23.6136 21.2949 23.4641 21.527C22.7034 22.7076 21.5809 23.61 20.2645 24.0993C18.9482 24.5886 17.5087 24.6383 16.1617 24.2412C14.8147 23.844 13.6325 23.0213 12.7922 21.8961C11.9519 20.771 11.4985 19.404 11.5 17.9997C11.5 17.9998 11.5 17.9996 11.5 17.9997V16.5C11.5 16.2238 11.7239 16 12 16Z" fill="#1A1615"/>
</svg>
