<svg width="36" height="36" viewBox="0 0 36 36" fill="none" xmlns="http://www.w3.org/2000/svg">
<rect width="36" height="36" rx="18" fill="#FFFDFC"/>
<path fill-rule="evenodd" clip-rule="evenodd" d="M18 15.5C16.8954 15.5 16 16.3954 16 17.5C16 18.6046 16.8954 19.5 18 19.5C19.1046 19.5 20 18.6046 20 17.5C20 16.3954 19.1046 15.5 18 15.5ZM15 17.5C15 15.8431 16.3431 14.5 18 14.5C19.6569 14.5 21 15.8431 21 17.5C21 19.1569 19.6569 20.5 18 20.5C16.3431 20.5 15 19.1569 15 17.5Z" fill="#1A1615"/>
<path fill-rule="evenodd" clip-rule="evenodd" d="M18 20.5C17.2613 20.5 16.5371 20.7042 15.9075 21.0906C15.278 21.477 14.7677 22.0302 14.4333 22.6888C14.3083 22.9351 14.0074 23.0333 13.7612 22.9083C13.5149 22.7833 13.4167 22.4824 13.5417 22.2362C13.9597 21.4128 14.5975 20.7213 15.3844 20.2383C16.1713 19.7553 17.0767 19.5 18 19.5C18.9234 19.5 19.8287 19.7553 20.6156 20.2383C21.4025 20.7213 22.0403 21.4128 22.4583 22.2362C22.5833 22.4824 22.4851 22.7833 22.2388 22.9083C21.9926 23.0333 21.6917 22.9351 21.5667 22.6888C21.2323 22.0302 20.722 21.477 20.0925 21.0906C19.4629 20.7042 18.7387 20.5 18 20.5Z" fill="#1A1615"/>
<path fill-rule="evenodd" clip-rule="evenodd" d="M20.5 13.5C20.5 13.2239 20.7239 13 21 13H24C24.2761 13 24.5 13.2239 24.5 13.5C24.5 13.7761 24.2761 14 24 14H21C20.7239 14 20.5 13.7761 20.5 13.5Z" fill="#1A1615"/>
<path fill-rule="evenodd" clip-rule="evenodd" d="M22.5 11.5C22.7761 11.5 23 11.7239 23 12V15C23 15.2761 22.7761 15.5 22.5 15.5C22.2239 15.5 22 15.2761 22 15V12C22 11.7239 22.2239 11.5 22.5 11.5Z" fill="#1A1615"/>
<path fill-rule="evenodd" clip-rule="evenodd" d="M18 12.5C16.9122 12.5 15.8488 12.8226 14.9444 13.4269C14.0399 14.0313 13.3349 14.8902 12.9187 15.8952C12.5024 16.9002 12.3935 18.0061 12.6057 19.073C12.8179 20.1399 13.3417 21.1199 14.1109 21.8891C14.8801 22.6583 15.8601 23.1821 16.927 23.3943C17.9939 23.6065 19.0998 23.4976 20.1048 23.0813C21.1098 22.6651 21.9687 21.9601 22.5731 21.0556C23.1774 20.1512 23.5 19.0878 23.5 18V17.5C23.5 17.2239 23.7239 17 24 17C24.2761 17 24.5 17.2239 24.5 17.5V18C24.5 19.2856 24.1188 20.5423 23.4046 21.6112C22.6903 22.6801 21.6752 23.5132 20.4874 24.0052C19.2997 24.4972 17.9928 24.6259 16.7319 24.3751C15.471 24.1243 14.3129 23.5052 13.4038 22.5962C12.4948 21.6872 11.8757 20.529 11.6249 19.2681C11.3741 18.0072 11.5028 16.7003 11.9948 15.5126C12.4868 14.3248 13.3199 13.3097 14.3888 12.5954C15.4577 11.8812 16.7144 11.5 18 11.5L18.5 11.5C18.7761 11.5 19 11.7239 19 12C19 12.2762 18.7761 12.5 18.5 12.5L18 12.5Z" fill="#1A1615"/>
</svg>
