<svg width="40" height="41" viewBox="0 0 40 41" fill="none" xmlns="http://www.w3.org/2000/svg">
<path d="M23.3333 15.5003V14.8337C23.3333 13.9002 23.3333 13.4335 23.1517 13.077C22.9919 12.7634 22.7369 12.5084 22.4233 12.3486C22.0668 12.167 21.6001 12.167 20.6667 12.167H19.3333C18.3999 12.167 17.9332 12.167 17.5767 12.3486C17.2631 12.5084 17.0081 12.7634 16.8483 13.077C16.6667 13.4335 16.6667 13.9002 16.6667 14.8337V15.5003M18.3333 20.0837V24.2503M21.6667 20.0837V24.2503M12.5 15.5003H27.5M25.8333 15.5003V24.8337C25.8333 26.2338 25.8333 26.9339 25.5608 27.4686C25.3212 27.939 24.9387 28.3215 24.4683 28.5612C23.9335 28.8337 23.2335 28.8337 21.8333 28.8337H18.1667C16.7665 28.8337 16.0665 28.8337 15.5317 28.5612C15.0613 28.3215 14.6788 27.939 14.4392 27.4686C14.1667 26.9339 14.1667 26.2338 14.1667 24.8337V15.5003" stroke="#717680" stroke-width="1.66667" stroke-linecap="round" stroke-linejoin="round"/>
</svg>
