<svg width="10" height="10" viewBox="0 0 10 10" fill="none" xmlns="http://www.w3.org/2000/svg">
<path d="M5.02149 0.9375C4.218 0.9375 3.43256 1.17576 2.76448 1.62215C2.09641 2.06855 1.57571 2.70302 1.26823 3.44535C0.960745 4.18767 0.880294 5.00451 1.03705 5.79255C1.1938 6.5806 1.58071 7.30447 2.14886 7.87262C2.71702 8.44077 3.44088 8.82769 4.22893 8.98444C5.01698 9.14119 5.83381 9.06074 6.57614 8.75326C7.31846 8.44578 7.95294 7.92508 8.39933 7.257C8.84572 6.58893 9.08399 5.80349 9.08399 5C9.08285 3.92291 8.65447 2.89025 7.89285 2.12863C7.13123 1.36701 6.09858 0.938637 5.02149 0.9375ZM5.02149 8.4375C4.34161 8.4375 3.67701 8.23589 3.11171 7.85818C2.54642 7.48046 2.10583 6.9436 1.84565 6.31547C1.58547 5.68735 1.5174 4.99619 1.65004 4.32938C1.78267 3.66257 2.11006 3.05006 2.59081 2.56932C3.07155 2.08858 3.68405 1.76119 4.35086 1.62855C5.01767 1.49591 5.70884 1.56399 6.33696 1.82416C6.96508 2.08434 7.50195 2.52493 7.87966 3.09023C8.25738 3.65552 8.45899 4.32013 8.45899 5C8.45795 5.91136 8.09546 6.78511 7.45102 7.42954C6.80659 8.07397 5.93285 8.43647 5.02149 8.4375ZM7.52149 5C7.52149 5.08288 7.48856 5.16237 7.42996 5.22097C7.37135 5.27958 7.29187 5.3125 7.20899 5.3125H5.02149C4.93861 5.3125 4.85912 5.27958 4.80052 5.22097C4.74191 5.16237 4.70899 5.08288 4.70899 5V2.8125C4.70899 2.72962 4.74191 2.65013 4.80052 2.59153C4.85912 2.53292 4.93861 2.5 5.02149 2.5C5.10437 2.5 5.18385 2.53292 5.24246 2.59153C5.30106 2.65013 5.33399 2.72962 5.33399 2.8125V4.6875H7.20899C7.29187 4.6875 7.37135 4.72042 7.42996 4.77903C7.48856 4.83763 7.52149 4.91712 7.52149 5Z" fill="#66615E"/>
</svg>
