<svg width="11" height="8" viewBox="0 0 11 8" fill="none" xmlns="http://www.w3.org/2000/svg">
<path d="M6.89648 3.0625C6.89648 3.14538 6.86356 3.22487 6.80496 3.28347C6.74635 3.34208 6.66686 3.375 6.58398 3.375H3.45898C3.3761 3.375 3.29662 3.34208 3.23801 3.28347C3.17941 3.22487 3.14648 3.14538 3.14648 3.0625C3.14648 2.97962 3.17941 2.90014 3.23801 2.84153C3.29662 2.78293 3.3761 2.75 3.45898 2.75H6.58398C6.66686 2.75 6.74635 2.78293 6.80496 2.84153C6.86356 2.90014 6.89648 2.97962 6.89648 3.0625ZM6.58398 4H3.45898C3.3761 4 3.29662 4.03293 3.23801 4.09153C3.17941 4.15014 3.14648 4.22962 3.14648 4.3125C3.14648 4.39538 3.17941 4.47487 3.23801 4.53347C3.29662 4.59208 3.3761 4.625 3.45898 4.625H6.58398C6.66686 4.625 6.74635 4.59208 6.80496 4.53347C6.86356 4.47487 6.89648 4.39538 6.89648 4.3125C6.89648 4.22962 6.86356 4.15014 6.80496 4.09153C6.74635 4.03293 6.66686 4 6.58398 4ZM10.0215 3.0625V4C10.0215 4.33152 9.88979 4.64947 9.65537 4.88389C9.42095 5.11831 9.10301 5.25 8.77148 5.25H8.56875C8.28789 5.86719 7.71758 6.39961 6.88008 6.81875C6.30782 7.09941 5.70198 7.30564 5.07734 7.43242C5.04041 7.4392 5.00256 7.4392 4.96562 7.43242C4.34099 7.30564 3.73515 7.09941 3.16289 6.81875C2.32617 6.39961 1.75508 5.86719 1.47422 5.25H1.27148C0.939964 5.25 0.622021 5.11831 0.387601 4.88389C0.15318 4.64947 0.0214844 4.33152 0.0214844 4V3.0625C0.0214844 2.73098 0.15318 2.41304 0.387601 2.17862C0.622021 1.9442 0.939964 1.8125 1.27148 1.8125H1.30469C1.33423 1.72312 1.38358 1.64156 1.44905 1.57392C1.51453 1.50628 1.59444 1.45431 1.68281 1.42188L4.80781 0.285549C4.94587 0.235536 5.0971 0.235536 5.23516 0.285549L8.36016 1.42188C8.44853 1.45431 8.52844 1.50628 8.59392 1.57392C8.65939 1.64156 8.70874 1.72312 8.73828 1.8125H8.77148C9.10301 1.8125 9.42095 1.9442 9.65537 2.17862C9.88979 2.41304 10.0215 2.73098 10.0215 3.0625ZM1.29297 4.625C1.2787 4.52145 1.27152 4.41704 1.27148 4.3125V2.4375C1.10572 2.4375 0.946753 2.50335 0.829543 2.62056C0.712332 2.73777 0.646484 2.89674 0.646484 3.0625V4C0.646484 4.16576 0.712332 4.32473 0.829543 4.44194C0.946753 4.55915 1.10572 4.625 1.27148 4.625H1.29297ZM8.14648 4.3125V2.01133L5.02148 0.875002L1.89648 2.01133V4.3125C1.89648 6.07031 4.59531 6.71563 5.02148 6.80625C5.44688 6.71563 8.14648 6.07031 8.14648 4.3125ZM9.39648 3.0625C9.39648 2.89674 9.33064 2.73777 9.21343 2.62056C9.09622 2.50335 8.93724 2.4375 8.77148 2.4375V4.3125C8.77145 4.41704 8.76427 4.52145 8.75 4.625H8.77148C8.93724 4.625 9.09622 4.55915 9.21343 4.44194C9.33064 4.32473 9.39648 4.16576 9.39648 4V3.0625Z" fill="#66615E"/>
</svg>
