<svg width="423" height="282" viewBox="0 0 423 282" fill="none" xmlns="http://www.w3.org/2000/svg">
<path d="M124.014 68.9561L60.7305 111.287L123.061 204.469L186.345 162.138L124.014 68.9561Z" fill="#E2F6EC"/>
<path d="M153.645 157.728L152.927 162.173L121.468 157.641L122.186 153.196L153.645 157.728Z" fill="#00B48D"/>
<path d="M137.802 141.872L142.316 142.523L137.311 173.496L132.796 172.846L137.802 141.872Z" fill="#00B48D"/>
<path d="M108.825 102.504C108.87 102.571 102.528 106.892 94.6616 112.154C86.7927 117.417 80.3789 121.628 80.3337 121.56C80.2886 121.493 86.6291 117.173 94.4986 111.91C102.365 106.648 108.78 102.437 108.825 102.504Z" fill="#00B48D"/>
<path d="M132.098 96.6616C132.143 96.7293 121.597 103.862 108.546 112.591C95.4896 121.324 84.8729 128.346 84.8278 128.278C84.7827 128.211 95.3266 121.079 108.382 112.347C121.433 103.618 132.053 96.5945 132.098 96.6616Z" fill="#00B48D"/>
<path d="M136.763 103.636C136.808 103.704 126.262 110.837 113.211 119.566C100.155 128.298 89.5379 135.321 89.4928 135.253C89.4477 135.185 99.9917 128.054 113.047 119.322C126.099 110.593 136.718 103.569 136.763 103.636Z" fill="#00B48D"/>
<path d="M141.427 110.611C141.472 110.679 130.926 117.811 117.875 126.54C104.819 135.273 94.2025 142.295 94.1574 142.228C94.1123 142.16 104.656 135.029 117.712 126.296C130.763 117.567 141.382 110.543 141.427 110.611Z" fill="#00B48D"/>
<path d="M146.093 117.585C146.138 117.653 135.592 124.785 122.541 133.515C109.485 142.247 98.868 149.27 98.8229 149.202C98.7778 149.134 109.322 142.003 122.377 133.271C135.428 124.542 146.048 117.518 146.093 117.585Z" fill="#00B48D"/>
<path d="M335.625 131.398L282.478 166.948L334.825 245.205L387.972 209.655L335.625 131.398Z" fill="#E2F6EC"/>
<path d="M360.508 205.961L359.905 209.693L333.485 205.887L334.088 202.154L360.508 205.961Z" fill="#83DFDF"/>
<path d="M347.203 192.645L350.994 193.191L346.791 219.203L343 218.657L347.203 192.645Z" fill="#83DFDF"/>
<path d="M322.867 159.582C322.913 159.65 317.592 163.287 310.986 167.706C304.377 172.126 298.985 175.654 298.94 175.586C298.895 175.518 304.214 171.882 310.823 167.462C317.429 163.043 322.822 159.515 322.867 159.582Z" fill="#00B48D"/>
<path d="M342.412 154.675C342.457 154.743 333.607 160.742 322.646 168.073C311.681 175.407 302.759 181.296 302.714 181.228C302.669 181.16 311.518 175.163 322.483 167.829C333.443 160.498 342.367 154.608 342.412 154.675Z" fill="#00B48D"/>
<path d="M346.331 160.534C346.376 160.601 337.525 166.601 326.564 173.932C315.6 181.265 306.678 187.154 306.632 187.086C306.587 187.019 315.437 181.021 326.401 173.687C337.361 166.356 346.286 160.466 346.331 160.534Z" fill="#00B48D"/>
<path d="M350.248 166.39C350.293 166.458 341.443 172.457 330.482 179.788C319.517 187.122 310.595 193.01 310.55 192.943C310.505 192.876 319.354 186.878 330.319 179.544C341.279 172.213 350.203 166.323 350.248 166.39Z" fill="#00B48D"/>
<path d="M354.166 172.249C354.211 172.316 345.36 178.315 334.4 185.646C323.435 192.98 314.513 198.869 314.468 198.801C314.423 198.734 323.272 192.736 334.237 185.402C345.197 178.071 354.121 172.181 354.166 172.249Z" fill="#00B48D"/>
<path d="M251.538 72.3768L193.549 41.3633L147.883 126.75L205.872 157.764L251.538 72.3768Z" fill="#E2F6EC"/>
<path d="M195.946 131.055L192.267 132.315L182.929 106.498L186.608 105.238L195.946 131.055Z" fill="#83DFDF"/>
<path d="M201.587 112.533L202.927 116.238L177.288 125.019L175.948 121.314L201.587 112.533Z" fill="#83DFDF"/>
<path d="M219.805 74.4442C219.759 74.5293 213.878 71.4719 206.669 67.6169C199.458 63.7603 193.651 60.5664 193.697 60.4812C193.743 60.3966 199.623 63.4529 206.834 67.309C214.042 71.1645 219.85 74.3596 219.805 74.4442Z" fill="#00B48D"/>
<path d="M233.72 89.8035C233.674 89.8887 223.94 84.7709 211.981 78.3752C200.018 71.9766 190.359 66.7229 190.405 66.6378C190.451 66.5532 200.182 71.6692 212.146 78.0678C224.105 84.4635 233.766 89.7183 233.72 89.8035Z" fill="#00B48D"/>
<path d="M230.302 96.1947C230.257 96.2799 220.522 91.1621 208.563 84.7658C196.6 78.3672 186.941 73.1135 186.987 73.0284C187.033 72.9438 196.764 78.0598 208.728 84.4584C220.687 90.8542 230.347 96.1095 230.302 96.1947Z" fill="#00B48D"/>
<path d="M226.884 102.585C226.838 102.67 217.104 97.5527 205.145 91.1564C193.181 84.7584 183.523 79.5042 183.569 79.419C183.614 79.3339 193.346 84.4505 205.31 90.849C217.269 97.2454 226.929 102.501 226.884 102.585Z" fill="#00B48D"/>
<path d="M223.466 108.977C223.42 109.062 213.687 103.944 201.727 97.548C189.763 91.15 180.105 85.8958 180.151 85.8106C180.196 85.726 189.928 90.842 201.892 97.2406C213.851 103.637 223.511 108.892 223.466 108.977Z" fill="#00B48D"/>
<path opacity="0.2" d="M223.77 0H222.313V24.8064H223.77V0Z" fill="black"/>
<path d="M189.071 54.8144H257.011C257.011 54.8144 250.738 24.791 222.527 24.791C197.433 24.7905 189.071 54.8144 189.071 54.8144Z" fill="#A5C8F2"/>
<path d="M223.77 0H222.313V24.8064H223.77V0Z" fill="#00B48D"/>
<path d="M374.308 248.063C374.308 248.144 301.411 248.209 211.508 248.209C121.574 248.209 48.6924 248.143 48.6924 248.063C48.6924 247.981 121.574 247.916 211.508 247.916C301.411 247.916 374.308 247.982 374.308 248.063Z" fill="#69A3E9"/>
<path d="M66.7134 212.742C68.6203 212.809 70.4104 213.844 71.6681 215.28C72.9258 216.714 73.6968 218.519 74.1903 220.362C75.1446 223.929 74.5581 228.138 73.5412 231.686C69.68 230.306 67.2994 226.189 66.2227 224.024C64.5206 220.603 63.5228 213.386 66.7134 212.742Z" fill="#83DFDF"/>
<path d="M79.0965 236.009C77.8782 234.26 77.8495 231.828 78.8128 229.926C79.7755 228.024 81.626 226.653 83.6637 226.027C84.6062 225.738 85.6992 225.616 86.5187 226.163C87.2852 226.675 87.6162 227.679 87.517 228.595C87.4183 229.511 86.9541 230.35 86.4065 231.091C84.5289 233.633 82.2453 235.748 79.0965 236.009Z" fill="#83DFDF"/>
<path d="M79.5211 247.926C79.5025 247.929 79.4438 247.664 79.3485 247.185C79.2453 246.656 79.1116 245.973 78.9514 245.152C78.6469 243.443 78.1635 241.013 78.529 238.326C78.8804 235.651 79.9452 233.365 81.0614 231.999C81.6107 231.308 82.1369 230.819 82.5261 230.519C82.7144 230.36 82.8803 230.263 82.9857 230.189C83.0934 230.118 83.1527 230.084 83.1583 230.092C83.2006 230.14 82.2559 230.722 81.2119 232.114C80.1544 233.484 79.1409 235.732 78.7946 238.362C78.4348 240.994 78.8804 243.402 79.1381 245.12C79.2763 245.983 79.3874 246.682 79.4517 247.168C79.5154 247.654 79.5391 247.924 79.5211 247.926Z" fill="#69A3E9"/>
<path d="M67.9587 218.171C67.9672 218.167 68.0207 218.268 68.1144 218.463C68.217 218.685 68.349 218.97 68.512 219.323C68.8532 220.071 69.3326 221.16 69.9141 222.511C71.0776 225.212 72.632 228.967 74.2552 233.15C75.8778 237.336 77.2608 241.157 78.2224 243.936C78.704 245.326 79.0836 246.453 79.3363 247.236C79.4536 247.607 79.5484 247.906 79.6217 248.139C79.6843 248.347 79.7125 248.457 79.704 248.46C79.695 248.463 79.6499 248.359 79.5709 248.157C79.4852 247.928 79.3746 247.634 79.2381 247.27C78.9449 246.466 78.5399 245.357 78.0442 243.999C77.0369 241.238 75.6269 237.429 74.0054 233.247C72.3833 229.066 70.8571 225.303 69.7393 222.584C69.1899 221.248 68.741 220.155 68.4156 219.364C68.2712 219.003 68.1544 218.712 68.0636 218.485C67.9869 218.283 67.9503 218.175 67.9587 218.171Z" fill="#00B48D"/>
<path d="M74.9383 240.042C72.6614 236.167 68.41 233.526 63.9279 233.201C62.7863 233.118 61.4136 233.31 60.9048 234.335C60.395 235.361 61.0768 236.577 61.8546 237.419C65.0897 240.923 70.5628 242.145 74.9811 240.349" fill="#83DFDF"/>
<path d="M65.666 236.255C65.6672 236.237 65.921 236.247 66.3806 236.282C66.6107 236.297 66.8922 236.318 67.2142 236.378C67.5357 236.438 67.9096 236.473 68.3078 236.584C68.7088 236.682 69.151 236.78 69.609 236.945C70.076 237.084 70.5554 237.283 71.059 237.496C72.0539 237.948 73.1092 238.539 74.1142 239.308C75.1119 240.086 75.9545 240.955 76.6398 241.807C76.9692 242.244 77.2839 242.658 77.5292 243.079C77.8005 243.483 78.0019 243.89 78.1908 244.257C78.3933 244.617 78.5128 244.973 78.6454 245.273C78.779 245.572 78.8625 245.842 78.9291 246.063C79.0661 246.504 79.1327 246.748 79.1152 246.753C79.0582 246.773 78.7836 245.787 78.0233 244.343C77.8259 243.986 77.6178 243.592 77.3425 243.199C77.0932 242.789 76.7763 242.387 76.4475 241.961C75.7628 241.131 74.9309 240.284 73.9512 239.52C72.9642 238.766 71.9315 238.178 70.9575 237.722C70.4646 237.506 69.9953 237.301 69.5379 237.156C69.0901 236.984 68.6558 236.877 68.2627 236.768C66.6807 236.367 65.6598 236.313 65.666 236.255Z" fill="#00B48D"/>
<path d="M168.612 132.282L148.669 234.817L146.058 248.24L279.198 247.583C285.173 247.553 290.468 242.248 292.391 234.365L315.999 137.562C317.458 131.578 314.256 125.354 309.72 125.359L174.968 125.501C171.993 125.505 169.391 128.281 168.612 132.282Z" fill="#A5C8F2"/>
<g opacity="0.5">
<path d="M168.612 132.282L148.669 234.817L146.058 248.24L279.198 247.583C285.173 247.553 290.468 242.248 292.391 234.365L315.999 137.562C317.458 131.578 314.256 125.354 309.72 125.359L174.968 125.501C171.993 125.505 169.391 128.281 168.612 132.282Z" fill="black"/>
</g>
<path d="M266.427 227.87L252.33 114.276C251.752 109.621 248.045 106.149 243.667 106.164L212.756 106.265C210.469 106.272 208.275 107.245 206.65 108.973L191.972 124.576L106.003 125.024C100.75 125.052 96.7138 130.022 97.4104 135.608L110.499 240.598C111.078 245.246 114.779 248.713 119.15 248.704L268.975 248.408C285.662 248.754 287.255 243.826 287.255 243.826C268.131 248.064 266.428 227.883 266.427 227.87Z" fill="#A5C8F2"/>
<g opacity="0.5">
<path d="M201.823 205.136L196.77 210.563L157.853 175.553L162.906 170.126L201.823 205.136Z" fill="#E2F6EC"/>
<path d="M194.652 168.923L200.237 173.946L165.024 211.767L159.439 206.742L194.652 168.923Z" fill="#E2F6EC"/>
</g>
<path d="M287.82 58.535C287.46 58.3804 287.201 58.0302 287.183 57.6123L286.958 52.3761C286.943 52.0467 287.084 51.7298 287.338 51.5199C287.591 51.3096 287.929 51.2312 288.25 51.3068C289.092 51.5053 290.02 51.322 290.797 50.8037C291.512 50.3265 291.992 49.6238 292.113 48.8753C292.235 48.1297 292.004 47.3046 291.48 46.6109C290.919 45.8681 290.09 45.3678 289.258 45.2725C287.559 45.0768 285.726 46.378 285.254 48.114C285.101 48.6746 284.523 49.0062 283.963 48.8534C283.392 48.6966 283.07 48.1224 283.223 47.5618C283.964 44.8332 286.779 42.8682 289.499 43.1812C290.909 43.3436 292.245 44.131 293.159 45.3413C294.028 46.4919 294.404 47.903 294.19 49.2138C293.975 50.5363 293.164 51.7534 291.965 52.5538C291.098 53.1319 290.105 53.4511 289.111 53.4855L289.286 57.5215C289.311 58.1024 288.86 58.5931 288.279 58.6179C288.117 58.6252 287.961 58.5948 287.82 58.535Z" fill="#83DFDF"/>
<path d="M289.363 60.6735C289.396 61.1478 289.038 61.559 288.563 61.5911C288.089 61.6238 287.678 61.2657 287.645 60.7914C287.612 60.317 287.971 59.9059 288.445 59.8732C288.919 59.8405 289.33 60.1992 289.363 60.6735Z" fill="#A5C8F2"/>
<path d="M269.697 51.1518C269.704 51.1518 269.721 51.0356 269.748 50.8083C269.774 50.5629 269.812 50.2291 269.858 49.7999C269.884 49.3537 269.998 48.8145 270.131 48.1789C270.206 47.8631 270.244 47.5117 270.36 47.1564C270.47 46.7988 270.586 46.4192 270.709 46.0177C271.255 44.434 272.097 42.5344 273.514 40.645C274.921 38.7596 276.899 36.8967 279.437 35.4855C280.688 34.7399 282.117 34.2205 283.617 33.7619C285.139 33.4016 286.752 33.0925 288.438 33.1325C289.281 33.0874 290.131 33.2109 290.998 33.2837C291.43 33.3248 291.856 33.4405 292.291 33.516C292.726 33.5961 293.163 33.6813 293.589 33.8291C295.33 34.2758 297.021 35.0969 298.633 36.115C301.869 38.1504 304.593 41.4622 306.088 45.4768C306.838 47.4852 307.196 49.6871 307.193 51.9109C307.238 54.1393 306.807 56.4026 306.014 58.5334L305.759 59.1775L305.726 59.2626L305.76 59.3422C307.175 62.6004 308.562 65.796 309.906 68.8924L310.144 68.6228C307.231 67.5038 304.407 66.4187 301.697 65.3775L301.593 65.3375L301.511 65.417C299.168 67.6877 296.369 69.2223 293.535 70.0221C290.692 70.8235 287.83 70.8647 285.226 70.4016C282.616 69.9397 280.266 68.9414 278.307 67.6583C276.342 66.3752 274.766 64.8152 273.551 63.2298C272.346 61.6269 271.551 59.9834 270.951 58.5153C270.423 57.0151 270.1 55.6835 269.943 54.5814C269.876 54.031 269.817 53.5414 269.766 53.1145C269.755 52.6926 269.746 52.3339 269.738 52.0367C269.729 51.7598 269.721 51.5409 269.716 51.3762C269.709 51.2279 269.703 51.1518 269.697 51.1518C269.692 51.1518 269.687 51.2268 269.683 51.3757C269.681 51.5409 269.678 51.7592 269.675 52.0378C269.674 52.3362 269.673 52.6977 269.673 53.1218C269.717 53.5521 269.766 54.0456 269.823 54.6006C269.962 55.7134 270.269 57.0614 270.787 58.5836C271.375 60.0731 272.165 61.7442 273.373 63.3776C274.59 64.9934 276.176 66.5862 278.162 67.9003C280.142 69.2144 282.523 70.2415 285.172 70.7231C287.815 71.2048 290.726 71.1749 293.621 70.3684C296.507 69.5641 299.363 68.008 301.757 65.6979L301.57 65.7374C304.279 66.7825 307.1 67.8721 310.012 68.9956L310.438 69.1597L310.25 68.726C308.907 65.6285 307.522 62.4323 306.109 59.1735L306.111 59.3377L306.371 58.6795C307.182 56.5019 307.621 54.1866 307.575 51.9092C307.577 49.6363 307.207 47.3854 306.439 45.3341C304.908 41.2333 302.12 37.8634 298.819 35.798C297.175 34.7647 295.45 33.9357 293.677 33.4856C293.243 33.3373 292.798 33.2521 292.356 33.172C291.914 33.0964 291.48 32.9808 291.04 32.9402C290.16 32.8697 289.295 32.7484 288.439 32.7975C286.726 32.7648 285.087 33.0851 283.544 33.4602C282.023 33.9334 280.575 34.4698 279.311 35.2334C276.744 36.6812 274.753 38.5847 273.346 40.5063C271.928 42.4312 271.097 44.3618 270.569 45.9669C270.451 46.3736 270.338 46.7588 270.233 47.1203C270.122 47.4801 270.089 47.8349 270.02 48.1541C269.898 48.7971 269.795 49.3408 269.782 49.7903C269.751 50.2217 269.727 50.559 269.709 50.8055C269.695 51.0344 269.691 51.1512 269.697 51.1518Z" fill="#00B48D"/>
</svg>
